<svg width="18" height="21" viewBox="0 0 18 21" fill="none" xmlns="http://www.w3.org/2000/svg">
<path fill-rule="evenodd" clip-rule="evenodd" d="M16.1601 6.87225C15.4961 6.657 13.9347 6.65963 11.6509 6.58481C11.7587 5.96925 11.7837 5.41406 11.7837 4.42837C11.7837 2.07375 10.395 0 9.16675 0C8.29922 0 7.58415 0.876094 7.573 1.95366C7.56131 3.27534 7.23034 5.55778 5.448 6.71541C5.31731 6.80072 4.94331 7.02844 4.88859 7.05797L4.91675 7.0875C4.63784 6.79022 4.25109 6.5625 3.85425 6.5625H2.2605C1.38181 6.5625 0.666748 7.44581 0.666748 8.53125V19.0312C0.666748 20.1167 1.38181 21 2.2605 21H3.85425C4.48644 21 5.01556 20.5282 5.27162 19.8667C5.278 19.8693 5.28915 19.8732 5.29659 19.8745C5.33165 19.8863 5.37309 19.8988 5.42356 19.9152C5.43312 19.9185 5.4379 19.9198 5.448 19.9231C5.754 20.0169 6.34315 20.1908 7.60222 20.5485C7.87209 20.6246 9.29797 21 10.7748 21H13.6792C14.5642 21 15.2023 20.5793 15.5821 19.7348C15.5874 19.7216 15.7096 19.427 15.8095 19.0286C15.8844 18.7287 15.912 18.3041 15.8217 17.8736C16.3923 17.3893 16.5761 16.6569 16.6956 16.1805C16.8959 15.3989 16.8359 14.8116 16.6967 14.3909C17.0176 14.0168 17.2912 13.4466 17.4064 12.5757C17.4782 12.0363 17.4011 11.4811 17.1998 11.0191C17.5005 10.6017 17.6375 10.0767 17.6535 9.59109L17.6598 9.45394C17.6636 9.36797 17.6667 9.31481 17.6667 9.12581C17.6667 8.29697 17.2019 7.23975 16.1601 6.87225ZM4.3855 19.0312C4.3855 19.3942 4.14803 19.6875 3.85425 19.6875H2.2605C1.96672 19.6875 1.72925 19.3942 1.72925 19.0312V8.53125C1.72925 8.16834 1.96672 7.875 2.2605 7.875H3.85425C4.14803 7.875 4.3855 8.16834 4.3855 8.53125V19.0312ZM16.592 9.53859C16.5814 9.86278 16.4714 10.5 15.5417 10.5C14.7449 10.5 14.4792 10.5 14.4792 10.5C14.3321 10.5 14.2136 10.647 14.2136 10.8281C14.2136 11.0092 14.3321 11.1562 14.4792 11.1562C14.4792 11.1562 14.7119 11.1562 15.5088 11.1562C16.3057 11.1562 16.4103 11.9726 16.3588 12.3664C16.2929 12.8559 16.107 13.7812 15.2097 13.7812C14.3135 13.7812 13.948 13.7812 13.948 13.7812C13.8008 13.7812 13.6824 13.9276 13.6824 14.1094C13.6824 14.2898 13.8008 14.4375 13.948 14.4375C13.948 14.4375 14.5791 14.4375 14.994 14.4375C15.8908 14.4375 15.8116 15.2821 15.6831 15.7861C15.5136 16.4482 15.41 17.0625 14.28 17.0625C13.8981 17.0625 13.4136 17.0625 13.4136 17.0625C13.2664 17.0625 13.1479 17.2088 13.1479 17.3906C13.1479 17.5711 13.2664 17.7188 13.4136 17.7188C13.4136 17.7188 13.7817 17.7188 14.2466 17.7188C14.8277 17.7188 14.8548 18.398 14.7943 18.6414C14.7279 18.9079 14.6492 19.1054 14.6461 19.1146C14.4856 19.4722 14.2269 19.6875 13.6792 19.6875H10.7748C9.31603 19.6875 7.8689 19.2787 7.83172 19.2682C5.6249 18.6401 5.50856 18.5916 5.3699 18.543C5.3699 18.543 4.92047 18.4492 4.92047 17.9648L4.91675 8.90072C4.91675 8.59294 5.07559 8.31469 5.33856 8.21691C5.3715 8.20116 5.41612 8.18409 5.448 8.16769C7.87475 6.92606 8.61372 4.20394 8.6355 1.96875C8.63869 1.65441 8.83472 1.3125 9.16675 1.3125C9.72828 1.3125 10.7212 2.70506 10.7212 4.42838C10.7212 5.98434 10.6702 6.25341 10.2292 7.875C15.5417 7.875 15.5046 7.9695 15.9731 8.12109C16.5543 8.3265 16.6042 8.92106 16.6042 9.12581C16.6042 9.35091 16.5989 9.31809 16.592 9.53859Z" fill="white"/>
</svg>
